<?xml version="1.0" encoding="utf-8"?>
<!-- Generator: Adobe Illustrator 16.0.0, SVG Export Plug-In . SVG Version: 6.00 Build 0)  -->
<!DOCTYPE svg PUBLIC "-//W3C//DTD SVG 1.1//EN" "http://www.w3.org/Graphics/SVG/1.1/DTD/svg11.dtd">
<svg version="1.1" id="hunter-college" xmlns="http://www.w3.org/2000/svg" xmlns:xlink="http://www.w3.org/1999/xlink" x="0px"
	 y="0px" width="360px" height="29.84px" viewBox="0 0 360 29.84" enable-background="new 0 0 360 29.84" xml:space="preserve">
<g id="outlines">
	<g id="hunter">
		<g>
			<path id="h_7_" fill="#FFFFFF" d="M0,0.56h7.08V11.4h10.04V0.56h7.08v28.6h-7.08V17.24H7.08v11.92H0V0.56z"/>
			<path id="u_7_" fill="#FFFFFF" d="M45.556,29.16v-3.345h-0.167c-0.967,1.302-2.072,2.313-3.317,3.038
				c-1.246,0.726-2.871,1.088-4.878,1.088c-3.197,0-5.65-0.928-7.359-2.787c-1.71-1.858-2.564-4.367-2.564-7.526V0.56h7.526v17.784
				c0,1.672,0.38,2.955,1.143,3.848c0.762,0.892,1.96,1.338,3.596,1.338c1.784,0,3.187-0.604,4.209-1.813
				c1.022-1.207,1.533-2.76,1.533-4.654V0.56h7.582v28.6H45.556z"/>
			<path id="n_7_" fill="#FFFFFF" d="M56.12,0.56h7.12l8.48,14.36c0.105,0.214,0.272,0.521,0.499,0.92
				c0.227,0.4,0.446,0.801,0.66,1.2c0.267,0.479,0.533,0.987,0.8,1.521h0.08c-0.026-0.641-0.04-1.254-0.04-1.84
				c-0.026-0.506-0.04-1-0.04-1.48c0-0.48,0-0.853,0-1.12V0.56H80.6v28.6h-7.12L65.08,15c-0.134-0.186-0.313-0.486-0.54-0.9
				c-0.227-0.413-0.447-0.846-0.66-1.3c-0.267-0.506-0.547-1.053-0.84-1.64h-0.08c0,0.694,0.013,1.347,0.04,1.96
				c0,0.534,0.006,1.06,0.02,1.58c0.013,0.521,0.02,0.899,0.02,1.14v13.32h-6.92V0.56z"/>
			<path id="t_7_" fill="#FFFFFF" d="M91.959,6.56h-8.32v-6h23.801v6h-8.4v22.6h-7.08L91.959,6.56L91.959,6.56z"/>
			<path id="e_7_" fill="#FFFFFF" d="M110.479,0.56h21.68V6.4h-14.6v5.12h12.52v5.52h-12.52v6.12h14.84v6h-21.92V0.56z"/>
			<path id="r_7_" fill="#FFFFFF" d="M135.599,0.56h13.679c1.414,0,2.734,0.18,3.961,0.54c1.227,0.36,2.287,0.887,3.18,1.58
				c0.893,0.694,1.594,1.554,2.1,2.58c0.508,1.027,0.76,2.207,0.76,3.54c0,1.68-0.406,3.107-1.219,4.28
				c-0.814,1.174-2.061,2.054-3.74,2.641v0.119c1.254,0.428,2.207,1.047,2.859,1.86c0.654,0.813,1.086,1.94,1.301,3.38
				c0.16,0.934,0.26,1.848,0.299,2.74c0.041,0.895,0.088,1.693,0.141,2.4c0.053,0.707,0.133,1.293,0.24,1.76
				c0.105,0.467,0.279,0.74,0.52,0.82v0.359h-6.879c-0.188-0.105-0.328-0.38-0.42-0.82c-0.094-0.439-0.174-0.973-0.24-1.6
				c-0.066-0.626-0.127-1.307-0.18-2.04c-0.055-0.733-0.135-1.46-0.24-2.181c-0.188-1.332-0.646-2.346-1.381-3.039
				c-0.734-0.693-1.859-1.04-3.379-1.04h-4.281v10.72h-7.08L135.599,0.56L135.599,0.56z M147.999,13.2
				c1.414,0,2.473-0.306,3.18-0.92c0.707-0.613,1.061-1.466,1.061-2.56c0-1.04-0.34-1.893-1.02-2.56c-0.68-0.666-1.701-1-3.061-1
				h-5.48v7.04H147.999z"/>
		</g>
	</g>
	<g id="college">
		<g>
			<path id="c_7_" fill="#FFFFFF" d="M184.798,29.801c-2.105,0-4.025-0.375-5.76-1.121c-1.735-0.746-3.219-1.779-4.459-3.1
				c-1.24-1.32-2.201-2.886-2.881-4.7c-0.68-1.813-1.02-3.786-1.02-5.92c0-2.133,0.332-4.113,1-5.94
				c0.666-1.826,1.613-3.406,2.84-4.74c1.227-1.333,2.707-2.38,4.439-3.14C180.69,0.38,182.623,0,184.758,0
				c1.681,0,3.205,0.227,4.58,0.68c1.373,0.454,2.565,1.067,3.58,1.84c1.252,0.934,2.231,2.08,2.938,3.44
				c0.707,1.36,1.152,2.84,1.341,4.44h-7.08c-0.188-1.28-0.755-2.354-1.699-3.22c-0.946-0.866-2.181-1.3-3.701-1.3
				c-1.174,0-2.186,0.228-3.038,0.68c-0.854,0.454-1.562,1.087-2.121,1.9c-0.56,0.814-0.979,1.774-1.261,2.88
				c-0.279,1.107-0.42,2.313-0.42,3.62c0,1.308,0.16,2.515,0.48,3.62c0.32,1.107,0.779,2.061,1.38,2.86
				c0.601,0.8,1.318,1.427,2.158,1.88c0.842,0.454,1.795,0.68,2.861,0.68c1.6,0,2.887-0.445,3.859-1.34
				c0.973-0.893,1.541-2.033,1.701-3.42h7.078c-0.105,1.439-0.459,2.787-1.06,4.04s-1.396,2.347-2.381,3.28
				c-1.119,1.066-2.42,1.873-3.899,2.42C188.579,29.526,186.825,29.801,184.798,29.801z"/>
			<path id="o_7_" fill="#FFFFFF" d="M214.878,29.84c-2.16,0-4.113-0.373-5.859-1.119s-3.227-1.787-4.438-3.121
				c-1.215-1.332-2.153-2.912-2.819-4.739c-0.669-1.827-1-3.808-1-5.94s0.331-4.113,1-5.94c0.666-1.826,1.604-3.406,2.819-4.74
				c1.213-1.333,2.692-2.373,4.438-3.12c1.746-0.746,3.699-1.12,5.859-1.12s4.113,0.374,5.861,1.12
				c1.746,0.747,3.232,1.787,4.459,3.12s2.174,2.914,2.84,4.74c0.666,1.827,1,3.807,1,5.94c0,2.135-0.334,4.114-1,5.94
				c-0.666,1.825-1.613,3.407-2.84,4.739c-1.227,1.334-2.713,2.375-4.459,3.121C218.991,29.467,217.038,29.84,214.878,29.84z
				 M214.919,24.08c1.146,0,2.152-0.232,3.02-0.7c0.867-0.466,1.595-1.105,2.181-1.92c0.586-0.813,1.021-1.78,1.301-2.899
				c0.279-1.12,0.42-2.334,0.42-3.641c0-1.306-0.141-2.52-0.42-3.64c-0.28-1.12-0.715-2.093-1.301-2.92
				c-0.586-0.827-1.313-1.473-2.181-1.94c-0.866-0.466-1.873-0.7-3.02-0.7s-2.154,0.234-3.02,0.7
				c-0.867,0.467-1.594,1.114-2.183,1.94c-0.586,0.827-1.024,1.8-1.317,2.92c-0.295,1.12-0.441,2.333-0.441,3.64
				s0.146,2.521,0.441,3.641c0.293,1.119,0.731,2.086,1.317,2.899c0.589,0.814,1.314,1.454,2.183,1.92
				C212.765,23.848,213.772,24.08,214.919,24.08z"/>
			<path id="l-1_7_" fill="#FFFFFF" d="M233.798,0.56h7.08v22.6h12.84v6h-19.92V0.56L233.798,0.56z"/>
			<path id="l-2_7_" fill="#FFFFFF" d="M258.397,0.56h7.08v22.6h12.84v6h-19.92V0.56L258.397,0.56z"/>
			<path id="e-1_7_" fill="#FFFFFF" d="M281.997,0.56h21.68V6.4h-14.6v5.12h12.52v5.52h-12.52v6.12h14.84v6h-21.92V0.56
				L281.997,0.56z"/>
			<path id="g_7_" fill="#FFFFFF" d="M319.997,29.801c-2.055,0-3.895-0.348-5.521-1.041c-1.627-0.692-3.038-1.68-4.239-2.959
				c-1.254-1.36-2.207-2.961-2.859-4.801c-0.654-1.84-0.979-3.854-0.979-6.04c0-2.266,0.366-4.353,1.102-6.26
				c0.732-1.906,1.779-3.54,3.139-4.9c1.201-1.2,2.613-2.133,4.24-2.8c1.627-0.666,3.48-1,5.562-1c1.84,0,3.491,0.234,4.959,0.7
				c1.467,0.467,2.733,1.134,3.801,2c1.065,0.867,1.926,1.914,2.58,3.14c0.651,1.227,1.1,2.587,1.34,4.08h-6.881
				c-0.267-1.173-0.865-2.146-1.799-2.92c-0.935-0.773-2.188-1.16-3.761-1.16c-1.174,0-2.207,0.233-3.102,0.7
				c-0.894,0.467-1.633,1.107-2.219,1.92c-0.589,0.814-1.027,1.774-1.32,2.88c-0.293,1.107-0.439,2.313-0.439,3.62
				c0,1.308,0.166,2.521,0.5,3.64c0.332,1.121,0.808,2.088,1.42,2.9c0.613,0.814,1.365,1.447,2.261,1.9
				c0.893,0.453,1.899,0.68,3.02,0.68c0.935,0,1.767-0.14,2.5-0.42c0.732-0.28,1.359-0.652,1.881-1.12
				c0.521-0.466,0.933-1,1.24-1.601c0.305-0.6,0.5-1.219,0.58-1.859V19h-5.361v-5.2h11.92v15.36H328.6l-0.399-3.439h-0.08
				c-0.934,1.467-2.088,2.514-3.461,3.14C323.282,29.486,321.729,29.801,319.997,29.801z"/>
			<path id="e-2_7_" fill="#FFFFFF" d="M338.08,0.56h21.68V6.4h-14.6v5.12h12.52v5.52h-12.52v6.12H360v6h-21.92V0.56L338.08,0.56z"
				/>
		</g>
	</g>
</g>
</svg>
